HIERARCHY
ROOT hip
{
  OFFSET 0 0 0
  CHANNELS 6 Xposition Yposition Zposition Zrotation Yrotation Xrotation
  JOINT abdomen
  {
    OFFSET 0 20.6881 -0.73152
    CHANNELS 3 Zrotation Xrotation Yrotation
    JOINT chest
    {
      OFFSET 0 11.7043 -0.48768
      CHANNELS 3 Zrotation Xrotation Yrotation
      JOINT neck
      {
        OFFSET 0 22.1894 -2.19456
        CHANNELS 3 Zrotation Xrotation Yrotation
        JOINT head
        {
          OFFSET -0.24384 7.07133 1.2192
          CHANNELS 3 Zrotation Xrotation Yrotation
          JOINT leftEye
          {
            OFFSET 4.14528 8.04674 8.04672
            CHANNELS 3 Zrotation Xrotation Yrotation
            End Site
            {
              OFFSET 1 0 0
            }
          }
          JOINT rightEye
          {
            OFFSET -3.6576 8.04674 8.04672
            CHANNELS 3 Zrotation Xrotation Yrotation
            End Site
            {
              OFFSET 1 0 0
            }
          }
        }
      }
      JOINT rCollar
      {
        OFFSET -2.68224 19.2634 -4.8768
        CHANNELS 3 Zrotation Xrotation Yrotation
        JOINT rShldr
        {
          OFFSET -8.77824 -1.95073 1.46304
          CHANNELS 3 Zrotation Xrotation Yrotation
          JOINT rForeArm
          {
            OFFSET -28.1742 -1.7115 0.48768
            CHANNELS 3 Zrotation Xrotation Yrotation
            JOINT rHand
            {
              OFFSET -22.5879 0.773209 7.07136
              CHANNELS 3 Zrotation Xrotation Yrotation
              JOINT rThumb1
              {
                OFFSET -1.2192 -0.487915 3.41376
                CHANNELS 3 Zrotation Xrotation Yrotation
                JOINT rThumb2
                {
                  OFFSET -3.37035 -0.52449 3.41376
                  CHANNELS 3 Zrotation Xrotation Yrotation
                  End Site
                  {
                    OFFSET -1.78271 -1.18214 1.43049
                  }
                }
              }
              JOINT rIndex1
              {
                OFFSET -7.75947 0.938293 5.60832
                CHANNELS 3 Zrotation Xrotation Yrotation
                JOINT rIndex2
                {
                  OFFSET -2.54057 -0.884171 1.56538
                  CHANNELS 3 Zrotation Xrotation Yrotation
                  End Site
                  {
                    OFFSET -1.62519 -0.234802 1.16502
                  }
                }
              }
              JOINT rMid1
              {
                OFFSET -8.24714 1.18213 3.41376
                CHANNELS 3 Zrotation Xrotation Yrotation
                JOINT rMid2
                {
                  OFFSET -3.10165 -0.590103 1.0647
                  CHANNELS 3 Zrotation Xrotation Yrotation
                  End Site
                  {
                    OFFSET -2.48547 -0.328903 0.83742
                  }
                }
              }
              JOINT rRing1
              {
                OFFSET -8.82822 0.546677 1.51678
                CHANNELS 3 Zrotation Xrotation Yrotation
                JOINT rRing2
                {
                  OFFSET -2.60934 -0.819778 -0.0198488
                  CHANNELS 3 Zrotation Xrotation Yrotation
                  End Site
                  {
                    OFFSET -2.33842 -0.294052 0.168128
                  }
                }
              }
              JOINT rPinky1
              {
                OFFSET -8.27202 -0.0477905 -0.4584
                CHANNELS 3 Zrotation Xrotation Yrotation
                JOINT rPinky2
                {
                  OFFSET -1.82734 -0.647385 -0.700984
                  CHANNELS 3 Zrotation Xrotation Yrotation
                  End Site
                  {
                    OFFSET -1.69225 -0.51767 -0.607171
                  }
                }
              }
            }
          }
        }
      }
      JOINT lCollar
      {
        OFFSET 2.68224 19.2634 -4.8768
        CHANNELS 3 Zrotation Xrotation Yrotation
        JOINT lShldr
        {
          OFFSET 8.77824 -1.95073 1.46304
          CHANNELS 3 Zrotation Xrotation Yrotation
          JOINT lForeArm
          {
            OFFSET 28.1742 -1.7115 0.48768
            CHANNELS 3 Zrotation Xrotation Yrotation
            JOINT lHand
            {
              OFFSET 22.5879 0.773209 7.07136
              CHANNELS 3 Zrotation Xrotation Yrotation
              JOINT lThumb1
              {
                OFFSET 1.2192 -0.487915 3.41376
                CHANNELS 3 Zrotation Xrotation Yrotation
                JOINT lThumb2
                {
                  OFFSET 3.37035 -0.52449 3.41376
                  CHANNELS 3 Zrotation Xrotation Yrotation
                  End Site
                  {
                    OFFSET 1.78271 -1.18214 1.43049
                  }
                }
              }
              JOINT lIndex1
              {
                OFFSET 7.75947 0.938293 5.60832
                CHANNELS 3 Zrotation Xrotation Yrotation
                JOINT lIndex2
                {
                  OFFSET 2.54057 -0.884171 1.56538
                  CHANNELS 3 Zrotation Xrotation Yrotation
                  End Site
                  {
                    OFFSET 1.62519 -0.234802 1.16502
                  }
                }
              }
              JOINT lMid1
              {
                OFFSET 8.24714 1.18213 3.41376
                CHANNELS 3 Zrotation Xrotation Yrotation
                JOINT lMid2
                {
                  OFFSET 3.10165 -0.590103 1.0647
                  CHANNELS 3 Zrotation Xrotation Yrotation
                  End Site
                  {
                    OFFSET 2.48547 -0.328903 0.83742
                  }
                }
              }
              JOINT lRing1
              {
                OFFSET 8.82822 0.546677 1.51678
                CHANNELS 3 Zrotation Xrotation Yrotation
                JOINT lRing2
                {
                  OFFSET 2.60934 -0.819778 -0.0198488
                  CHANNELS 3 Zrotation Xrotation Yrotation
                  End Site
                  {
                    OFFSET 2.33842 -0.294052 0.168128
                  }
                }
              }
              JOINT lPinky1
              {
                OFFSET 8.27202 -0.0477905 -0.4584
                CHANNELS 3 Zrotation Xrotation Yrotation
                JOINT lPinky2
                {
                  OFFSET 1.82734 -0.647385 -0.700984
                  CHANNELS 3 Zrotation Xrotation Yrotation
                  End Site
                  {
                    OFFSET 1.69225 -0.51767 -0.607171
                  }
                }
              }
            }
          }
        }
      }
    }
  }
  JOINT rButtock
  {
    OFFSET -8.77824 4.35084 1.2192
    CHANNELS 3 Zrotation Xrotation Yrotation
    JOINT rThigh
    {
      OFFSET 0 -1.70687 -2.19456
      CHANNELS 3 Zrotation Xrotation Yrotation
      JOINT rShin
      {
        OFFSET 0 -36.8199 0.73152
        CHANNELS 3 Zrotation Xrotation Yrotation
        JOINT rFoot
        {
          OFFSET 0.73152 -45.1104 -5.12064
          CHANNELS 3 Zrotation Xrotation Yrotation
          End Site
          {
            OFFSET -1.1221 -3.69964 12.103
          }
        }
      }
    }
  }
  JOINT lButtock
  {
    OFFSET 8.77824 4.35084 1.2192
    CHANNELS 3 Zrotation Xrotation Yrotation
    JOINT lThigh
    {
      OFFSET 0 -1.70687 -2.19456
      CHANNELS 3 Zrotation Xrotation Yrotation
      JOINT lShin
      {
        OFFSET 0 -36.8199 0.73152
        CHANNELS 3 Zrotation Xrotation Yrotation
        JOINT lFoot
        {
          OFFSET -0.73152 -45.1104 -5.12064
          CHANNELS 3 Zrotation Xrotation Yrotation
          End Site
          {
            OFFSET 1.1221 -3.69964 12.103
          }
        }
      }
    }
  }
}
MOTION
Frames:	5
Frame Time:	0.00833333
134.323 85.1388 188.056 0.0 0.0 0.0 0.410589 -0.00336423 0.0117806 0.113459 -0.00539518 0.0196593 -6.90161e-15 1.59028e-15 -8.07563e-17 -2.08522e-14 1.59028e-14 -2.48481e-16 -0.0 0.0 0.0 -0.0 0.0 0.0 -3.38085e-15 -1.28123e-17 9.93923e-17 -7.3198e-14 -3.10601e-16 -1.98785e-16 -1.26104e-12 3.70733e-13 -6.36111e-15 -1.44435e-11 -4.14143e-13 -1.7175e-13 -3.40706e-11 -9.25859e-14 -3.94389e-13 -5.88585e-11 -1.59028e-13 -6.73482e-13 -3.40697e-11 -9.50191e-14 -4.0075e-13 7.73091 5.47488 0.417314 -3.4072e-11 -9.28324e-14 -3.91208e-13 2.90554 0.965183 0.102902 -3.40671e-11 -9.323e-14 -3.91208e-13 10.2786 0.731801 0.0259123 -3.40832e-11 -8.8658e-14 -3.84847e-13 2.22167 -0.733487 -0.20892 -3.67623e-15 -1.35888e-17 -1.98785e-16 -7.43458e-14 -3.97569e-16 -1.98785e-15 -1.26268e-12 -3.85443e-13 9.54166e-15 -1.44436e-11 3.43798e-13 -1.84472e-13 -3.40683e-11 -8.85857e-14 -3.94389e-13 -5.88136e-11 -1.52667e-13 -6.74278e-13 -3.40701e-11 -9.10434e-14 -3.84847e-13 -7.73091 5.47488 -0.417314 -3.40662e-11 -8.93537e-14 -3.97569e-13 -2.90554 0.965183 -0.102902 -3.4072e-11 -8.91549e-14 -3.91208e-13 -10.2786 0.731801 -0.0259123 -3.40558e-11 -8.3092e-14 -4.0075e-13 -2.22167 -0.733487 0.20892 -2.03217e-16 0.0 -3.88251e-19 0.770617 -4.17183 -0.065682 -0.00265496 2.00554 -0.0182711 -0.461842 2.16687 0.0961026 2.03217e-16 0.0 3.88251e-19 -0.143222 -2.55995 0.0260682 0.00716312 -0.914089 0.0621711 0.453761 3.47457 -0.121223
134.657 83.5012 182.499 178.417 -0.4485 -153.108 -1.65348 -8.90237 -0.405194 0.995456 3.97706 -0.202625 -1.30801 4.86779 -0.351487 4.73628 -8.38349 0.330307 -0.0 0.0 0.0 -0.0 0.0 0.0 5.6806e-14 9.65376e-14 1.5888e-14 23.2749 1.41825 -0.977476 -4.18447 -1.89429 6.54331 3.82711e-05 -0.139291 -0.0195758 -9.66411e-10 7.38802e-10 -9.65232e-10 -1.67117e-09 1.27712e-09 -1.66788e-09 -9.6641e-10 7.388e-10 -9.6524e-10 7.73091 5.47488 0.417314 -9.66413e-10 7.38802e-10 -9.65229e-10 2.90554 0.965183 0.102902 -9.66407e-10 7.38801e-10 -9.6523e-10 10.2786 0.731801 0.0259123 -9.66421e-10 7.38805e-10 -9.65224e-10 2.22167 -0.733487 -0.20892 5.65764e-14 9.65375e-14 1.56465e-14 -20.8384 6.23425 -1.59386 3.81422 -1.65947 -6.03498 -0.000596414 0.547345 -0.076912 -8.81318e-10 -8.48382e-11 5.27391e-10 -1.52077e-09 -1.44984e-10 9.14281e-10 -8.81324e-10 -8.48421e-11 5.27399e-10 -7.73091 5.47488 -0.417314 -8.81319e-10 -8.48407e-11 5.2739e-10 -2.90554 0.965183 -0.102902 -8.81324e-10 -8.48404e-11 5.27394e-10 -10.2786 0.731801 -0.0259123 -8.81309e-10 -8.48346e-11 5.27388e-10 -2.22167 -0.733487 0.20892 -2.03217e-16 0.0 -3.88251e-19 0.725099 -10.408 1.49638 0.00320488 3.49239 0.0328643 -0.661597 -2.43278 -2.52505 2.03217e-16 0.0 3.88251e-19 0.11504 -9.37761 -2.37368 0.0059244 1.36604 0.0229208 0.440091 1.64481 -0.456258
134.704 83.4997 182.49 178.638 -0.646 -153.148 -3.981 -18.3091 -0.881543 1.96091 8.18531 -0.441518 -2.62497 10.0104 -0.730725 9.85001 -17.2551 0.707291 -0.0 0.0 0.0 -0.0 0.0 0.0 1.23542e-13 2.07624e-13 3.38617e-14 47.9332 2.92135 -2.00928 -8.14107 -3.81458 13.4836 -2.51178e-05 -0.283786 -0.0398835 -2.01764e-09 1.59438e-09 -2.07754e-09 -3.48912e-09 2.75613e-09 -3.58994e-09 -2.01764e-09 1.59438e-09 -2.07755e-09 7.73091 5.47488 0.417314 -2.01764e-09 1.59438e-09 -2.07753e-09 2.90554 0.965183 0.102902 -2.01764e-09 1.59438e-09 -2.07754e-09 10.2786 0.731801 0.0259123 -2.01765e-09 1.59439e-09 -2.07753e-09 2.22167 -0.733487 -0.20892 1.23381e-13 2.07625e-13 3.36816e-14 -42.483 12.7948 -3.33959 7.46119 -3.34741 -12.4195 0.000385134 1.13499 -0.159511 -1.83731e-09 -1.56014e-10 1.14725e-09 -3.17029e-09 -2.66063e-10 1.98871e-09 -1.83732e-09 -1.5602e-10 1.14725e-09 -7.73091 5.47488 -0.417314 -1.83731e-09 -1.56018e-10 1.14725e-09 -2.90554 0.965183 -0.102902 -1.83732e-09 -1.56018e-10 1.14725e-09 -10.2786 0.731801 -0.0259123 -1.8373e-09 -1.56012e-10 1.14725e-09 -2.22167 -0.733487 0.20892 -2.03217e-16 0.0 -3.88251e-19 1.06472 -16.9859 3.23951 0.00655375 5.06609 0.0871505 -1.33264 -7.26915 -5.33375 2.03217e-16 0.0 3.88251e-19 -0.254853 -16.5442 -5.05127 0.00801691 3.77921 -0.0186585 0.402531 -0.287423 -0.811813
134.65 83.4992 182.503 178.387 -0.4429 -153.091 -6.20932 -26.6945 -1.37061 2.85386 11.9413 -0.660012 -3.73978 14.6011 -1.08572 14.5246 -25.147 1.08299 -0.0 0.0 0.0 -0.0 0.0 0.0 1.7718e-13 2.89639e-13 4.74653e-14 69.9703 4.24979 -2.93962 -11.2788 -5.387 19.7098 -0.000170735 -0.417871 -0.0587288 -2.83109e-09 2.21659e-09 -2.89491e-09 -4.89579e-09 3.83168e-09 -5.00229e-09 -2.83109e-09 2.21659e-09 -2.89492e-09 7.73091 5.47488 0.417314 -2.83109e-09 2.21659e-09 -2.8949e-09 2.90554 0.965183 0.102902 -2.83109e-09 2.21659e-09 -2.89491e-09 10.2786 0.731801 0.0259123 -2.8311e-09 2.21659e-09 -2.8949e-09 2.22167 -0.733487 -0.20892 1.77082e-13 2.8964e-13 4.73371e-14 -61.4271 18.6432 -5.01719 10.4103 -4.7579 -18.1621 0.00262072 1.64202 -0.23082 -2.57582e-09 -2.54338e-10 1.58296e-09 -4.44468e-09 -4.34646e-10 2.74419e-09 -2.57583e-09 -2.54344e-10 1.58297e-09 -7.73091 5.47488 -0.417314 -2.57582e-09 -2.54344e-10 1.58296e-09 -2.90554 0.965183 -0.102902 -2.57583e-09 -2.54343e-10 1.58296e-09 -10.2786 0.731801 -0.0259123 -2.57582e-09 -2.54338e-10 1.58297e-09 -2.22167 -0.733487 0.20892 -2.03217e-16 0.0 -3.88251e-19 1.73016 -22.8145 4.93307 0.0069169 6.46607 0.135793 -2.33984 -11.5311 -7.92125 2.03217e-16 0.0 3.88251e-19 -1.2045 -22.8511 -7.68421 0.0128397 5.92629 -0.0558821 0.348543 -2.01418 -1.12691
134.641 83.4969 182.518 178.343 -0.4108 -153.022 -7.8738 -32.5322 -1.76687 3.49807 14.5672 -0.815207 -4.48012 17.8141 -1.35067 17.864 -30.5932 1.36584 -0.0 0.0 0.0 -0.0 0.0 0.0 1.98069e-13 2.98971e-13 5.01434e-14 85.3513 5.14623 -3.60936 -13.2589 -6.37165 24.0745 -0.000339256 -0.525931 -0.0739169 -3.05009e-09 2.25537e-09 -2.97494e-09 -5.27429e-09 3.89856e-09 -5.14039e-09 -3.05009e-09 2.25536e-09 -2.97495e-09 7.73091 5.47488 0.417314 -3.05009e-09 2.25537e-09 -2.97493e-09 2.90554 0.965183 0.102902 -3.05008e-09 2.25537e-09 -2.97494e-09 10.2786 0.731801 0.0259123 -3.05009e-09 2.25537e-09 -2.97493e-09 2.22167 -0.733487 -0.20892 1.98022e-13 2.98973e-13 5.0044e-14 -74.3967 22.7672 -6.30449 12.328 -5.68123 -22.2464 0.00465416 1.94755 -0.273817 -2.77063e-09 -4.2053e-10 1.55833e-09 -4.78128e-09 -7.21989e-10 2.7023e-09 -2.77064e-09 -4.20537e-10 1.55834e-09 -7.73091 5.47488 -0.417314 -2.77064e-09 -4.20537e-10 1.55834e-09 -2.90554 0.965183 -0.102902 -2.77064e-09 -4.20536e-10 1.55834e-09 -10.2786 0.731801 -0.0259123 -2.77063e-09 -4.20531e-10 1.55834e-09 -2.22167 -0.733487 0.20892 -2.03217e-16 0.0 -3.88251e-19 2.40915 -26.8307 6.22133 0.00550408 7.43179 0.169757 -3.27912 -14.4569 -9.79722 2.03217e-16 0.0 3.88251e-19 -2.26902 -27.1589 -9.73806 0.017818 7.40814 -0.0818153 0.299135 -3.22783 -1.33943
